<?xml version="1.0" standalone="no"?><!DOCTYPE svg PUBLIC "-//W3C//DTD SVG 1.1//EN" "http://www.w3.org/Graphics/SVG/1.1/DTD/svg11.dtd"><svg t="1700669156508" class="icon" viewBox="0 0 1024 1024" version="1.1" xmlns="http://www.w3.org/2000/svg" p-id="22135" xmlns:xlink="http://www.w3.org/1999/xlink" width="16" height="16"><path d="M533.333333 661.333333H42.666667v106.666667c0 46.933333 38.4 85.333333 85.333333 85.333333h492.8c-53.333333-46.933333-87.466667-115.2-87.466667-192z m-266.666666 128h-106.666667c-17.066667 0-32-14.933333-32-32S142.933333 725.333333 160 725.333333h106.666667c17.066667 0 32 14.933333 32 32s-14.933333 32-32 32zM704 149.333333H128c-46.933333 0-85.333333 38.4-85.333333 85.333334v106.666666h746.666666v-106.666666c0-46.933333-38.4-85.333333-85.333333-85.333334z m-437.333333 128h-106.666667c-17.066667 0-32-14.933333-32-32S142.933333 213.333333 160 213.333333h106.666667c17.066667 0 32 14.933333 32 32s-14.933333 32-32 32z m298.666666 0c-17.066667 0-32-14.933333-32-32s14.933333-32 32-32 32 14.933333 32 32-14.933333 32-32 32z m106.666667 0c-17.066667 0-32-14.933333-32-32s14.933333-32 32-32 32 14.933333 32 32-14.933333 32-32 32zM42.666667 597.333333h499.2c14.933333-57.6 49.066667-106.666667 93.866666-140.8h2.133334l19.2-12.8 2.133333-2.133333c6.4-4.266667 12.8-6.4 19.2-10.666667 2.133333 0 2.133333-2.133333 4.266667-2.133333 6.4-2.133333 12.8-4.266667 19.2-8.533333 2.133333 0 4.266667-2.133333 6.4-2.133334 6.4-2.133333 12.8-4.266667 19.2-4.266666 2.133333 0 4.266667-2.133333 6.4-2.133334 6.4-2.133333 12.8-2.133333 19.2-4.266666 2.133333 0 4.266667 0 6.4-2.133334 8.533333 0 17.066667-2.133333 27.733333-2.133333H42.666667V597.333333z m117.333333-128h106.666667c17.066667 0 32 14.933333 32 32s-14.933333 32-32 32h-106.666667c-17.066667 0-32-14.933333-32-32S142.933333 469.333333 160 469.333333zM684.8 625.066667h-14.933333v74.666666h17.066666c21.333333 0 32-12.8 32-36.266666 0-25.6-10.666667-38.4-34.133333-38.4z" p-id="22136" fill="#00a1b8"></path><path d="M789.333333 469.333333c-106.666667 0-192 85.333333-192 192s85.333333 192 192 192 192-85.333333 192-192-85.333333-192-192-192z m-102.4 253.866667h-29.866666c-8.533333 0-12.8-4.266667-12.8-12.8v-96c0-8.533333 4.266667-12.8 12.8-12.8h27.733333c38.4 2.133333 59.733333 21.333333 59.733333 61.866667 0 38.4-19.2 57.6-57.6 59.733333z m172.8-12.8c0 8.533333-4.266667 12.8-12.8 12.8-4.266667 0-8.533333-2.133333-10.666666-4.266667l-53.333334-70.4v64c0 8.533333-4.266667 12.8-12.8 12.8s-12.8-4.266667-12.8-12.8v-98.133333c0-8.533333 4.266667-12.8 12.8-12.8 4.266667 0 8.533333 2.133333 10.666667 6.4l53.333333 72.533333v-64c0-8.533333 4.266667-12.8 12.8-12.8 8.533333 0 12.8 4.266667 12.8 12.8v93.866667z m51.2 12.8c-27.733333 0-40.533333-6.4-40.533333-17.066667 0-8.533333 4.266667-10.666667 10.666667-12.8 2.133333 0 6.4 0 12.8 2.133334s12.8 4.266667 17.066666 4.266666c10.666667 0 17.066667-6.4 17.066667-14.933333 0-6.4-6.4-10.666667-21.333333-14.933333-19.2-2.133333-32-12.8-36.266667-32 2.133333-23.466667 14.933333-36.266667 42.666667-38.4 21.333333 2.133333 32 6.4 34.133333 17.066666 0 8.533333-4.266667 12.8-10.666667 12.8-2.133333 0-4.266667 0-8.533333-2.133333-6.4-2.133333-10.666667-2.133333-12.8-2.133333-8.533333 0-12.8 4.266667-14.933333 10.666666 0 4.266667 6.4 8.533333 19.2 12.8 21.333333 2.133333 34.133333 14.933333 38.4 38.4-4.266667 21.333333-19.2 34.133333-46.933334 36.266667z" p-id="22137" fill="#00a1b8"></path></svg>